<svg width="2903" height="468" viewBox="0 0 2903 468" fill="none" xmlns="http://www.w3.org/2000/svg">
<path d="M1979.29 12.3284C1983.11 11.3105 2056.41 10.2922 2062.9 11.1829C2063.28 12.4553 2063.79 13.9824 2064.17 15.3821C2066.84 30.3967 2069.39 45.5384 2071.93 60.553C2075.24 80.5302 2078.55 100.381 2081.99 120.358C2086.44 146.951 2090.9 173.417 2095.22 200.011C2099.17 224.569 2102.86 249.255 2106.8 273.813C2108.84 286.791 2111.13 299.643 2113.17 312.621C2117.11 337.434 2121.18 362.373 2125 387.186C2128.82 411.871 2132.64 436.683 2136.45 461.368C2136.71 462.895 2136.71 464.55 2136.84 465.949C2133.01 467.222 2071.04 467.986 2064.55 466.713L2063.92 463.937C2058.76 432.612 2055.73 401.052 2050.43 369.372C2032.87 368.227 2015.56 369.117 1997.87 369.244C1997.49 370.644 1996.98 371.917 1996.85 373.062C1995.2 385.659 1993.8 398.256 1992.14 410.726C1990.62 422.687 1988.96 434.648 1987.43 446.609C1986.67 451.953 1986.04 457.297 1985.27 462.641C1985.14 464.041 1984.76 465.44 1984.51 467.349C1961.73 467.985 1939.2 467.73 1916.55 467.858C1915.79 464.422 1916.43 461.496 1916.81 458.697C1917.95 449.79 1919.22 440.882 1920.5 431.848C1922.15 420.778 1923.81 409.708 1925.33 398.638C1926.48 390.749 1927.37 382.732 1928.51 374.843C1930.04 363.519 1931.7 352.067 1933.35 340.742C1934.37 333.235 1935.39 325.727 1936.4 318.22C1937.55 309.695 1938.7 301.17 1939.84 292.645C1941.11 283.611 1942.26 274.449 1943.53 265.414C1945.44 251.545 1947.48 237.802 1949.51 223.933C1950.78 215.153 1951.8 206.374 1952.95 197.467L1959.06 154.713C1960.58 143.261 1962.11 131.936 1963.64 120.485C1965.17 109.033 1966.82 97.7077 1968.47 86.3831C1969.62 77.858 1970.64 69.3329 1971.91 60.8079C1973.44 49.7377 1975.09 38.6671 1976.75 27.5969C1977.25 23.9069 1977.89 20.0897 1978.4 16.3997C1978.65 15.0002 1979.04 13.6007 1979.29 12.3284ZM2831.54 395.711C2840.19 392.403 2894.53 391.894 2902.29 395.075C2903.05 418.234 2902.8 441.519 2902.8 465.314C2900.38 465.695 2898.22 466.331 2896.18 466.458C2882.95 466.967 2869.71 467.349 2856.48 467.604C2850.24 467.604 2844.01 467.223 2837.77 466.968C2836.12 466.968 2834.34 466.458 2832.17 466.076C2831.54 454.116 2831.66 442.41 2831.54 430.703V395.711ZM2500.41 4.82057C2515.81 4.82057 2531.34 4.82097 2546.73 5.07546C2572.19 5.45718 2597.64 5.83924 2623.22 6.22096C2648.54 6.72993 2673.86 7.23836 2699.19 7.74733C2703.26 7.74733 2707.33 7.74773 2711.4 8.00221C2712.93 8.00221 2714.59 8.25681 2715.99 8.38405C2717 12.4588 2716.24 66.4059 2715.09 73.7864C2714.2 73.9136 2713.31 74.1682 2712.3 74.1682C2693.08 74.1682 2673.86 74.1685 2654.65 74.0413C2650.7 74.0413 2646.88 74.041 2642.56 74.1682C2642.56 76.0769 2642.3 77.4766 2642.3 78.8762C2642.05 96.054 2641.67 113.232 2641.41 130.409C2641.41 135.372 2641.16 140.335 2641.03 145.297C2640.52 174.945 2640.01 204.72 2639.5 234.367C2639.12 260.834 2638.74 287.427 2638.23 313.894C2637.98 331.835 2637.59 349.65 2637.34 367.591C2637.09 383.751 2636.96 399.911 2636.7 416.071C2636.58 431.212 2636.45 446.354 2636.32 461.496C2636.32 462.387 2636.32 463.151 2636.2 464.932L2626.85 465.211C2605.68 464.957 2584.83 464.581 2563.79 463.913C2563.53 462.387 2563.15 461.242 2563.15 460.097C2563.15 446.991 2563.15 433.885 2563.4 420.779C2563.53 397.748 2563.79 374.844 2564.04 351.813C2564.17 335.653 2564.42 319.493 2564.68 303.333C2564.8 286.41 2564.93 269.614 2565.19 252.691C2565.44 236.276 2565.82 219.861 2566.08 203.32C2566.33 186.905 2566.59 170.364 2566.84 153.949C2567.09 134.481 2567.09 114.886 2567.35 95.4182C2567.35 89.8195 2567.6 84.3477 2567.73 78.8762C2567.73 77.3493 2567.6 75.695 2567.48 73.7864C2565.69 73.5319 2564.17 73.2779 2562.64 73.1507C2551.57 72.8962 2540.5 72.6415 2529.43 72.387C2520.01 72.1325 2510.46 72.0047 2501.05 71.7503C2499.52 71.7502 2497.87 71.6236 2495.83 71.4964C2495.58 69.206 2495.32 67.2969 2495.32 65.261C2495.58 51.9006 2495.83 38.4124 2496.21 25.052C2496.34 18.69 2496.85 12.3276 2497.1 5.32936C2497.99 5.20209 2499.14 4.82059 2500.41 4.82057ZM1476.24 14.6194C1493.68 6.34861 1512.13 3.80304 1531.22 5.07546C1545.09 6.0934 1558.7 8.76549 1571.18 15.3821C1581.61 20.9808 1590.39 28.3616 1597.65 37.7776C1611.39 55.8459 1618.39 76.3317 1620.68 98.5989C1621.82 110.178 1622.33 121.758 1622.72 133.464C1623.48 154.332 1623.99 175.073 1624.62 195.941C1625.13 211.846 1625.64 227.624 1626.15 243.53C1626.53 255.617 1627.04 267.705 1627.42 279.793C1627.68 289.845 1627.93 299.898 1628.06 309.95C1628.31 320.893 1628.57 331.836 1628.82 342.652V360.084C1628.19 376.88 1624.88 393.04 1618.52 408.564C1611.39 425.996 1600.57 440.883 1584.03 450.808C1572.96 457.424 1561 461.115 1548.27 463.151C1534.27 465.441 1520.4 465.568 1506.53 462.896C1486.42 458.951 1469.37 449.79 1456.14 433.757C1447.61 423.323 1441.76 411.617 1437.17 399.02C1430.68 380.951 1428.52 362.246 1428.01 343.287C1427.37 324.837 1427.25 306.26 1426.87 287.81C1426.61 274.322 1426.23 260.707 1425.72 247.219C1425.21 235.004 1424.19 222.916 1423.68 210.7C1423.05 191.487 1422.67 172.273 1422.16 153.06C1421.9 138.045 1421.52 123.03 1421.52 108.143C1421.52 94.7823 1423.81 81.6761 1428.27 69.2063C1437.05 44.7758 1452.44 25.9441 1476.24 14.6194ZM1198.44 7.6194C1202.64 6.21973 1269.83 5.0748 1275.81 6.21999L1276.12 6.86647C1276.25 8.06508 1276.45 9.17888 1276.45 10.2923C1276.96 24.5432 1277.72 38.7942 1278.1 53.0452C1278.87 79.639 1279.37 106.361 1280.01 132.954C1280.26 147.206 1280.52 161.457 1280.77 175.708C1281.16 190.723 1281.54 205.737 1281.92 220.624C1282.05 226.859 1281.92 233.094 1282.05 239.456C1282.17 252.69 1282.43 265.923 1282.68 279.157C1282.94 290.099 1283.19 301.042 1283.45 311.858C1283.7 322.928 1283.7 333.998 1283.96 345.069C1284.21 362.119 1284.59 379.17 1284.85 396.093V418.361C1284.85 430.067 1284.97 441.646 1284.85 453.352C1284.85 456.66 1284.59 459.969 1284.34 463.658C1258.25 464.04 1232.8 464.804 1206.71 464.677C1206.33 459.842 1205.82 455.643 1205.56 451.317C1205.06 436.938 1204.55 422.559 1204.04 408.181C1203.78 400.292 1203.53 392.53 1203.4 384.641C1203.15 371.408 1202.89 358.174 1202.64 344.941C1202.26 326.745 1202 308.549 1201.62 290.354C1201.24 273.812 1200.86 257.143 1200.47 240.602C1200.09 221.643 1199.96 202.811 1199.71 183.852C1199.46 164.256 1199.2 144.533 1198.95 124.938C1198.69 109.16 1198.31 93.5088 1198.18 77.7307C1198.06 63.4795 1198.06 49.228 1198.06 34.9768V16.1448C1198.06 13.2183 1198.31 10.4187 1198.44 7.6194ZM906.764 6.22096C921.144 6.22096 935.651 6.22108 950.031 6.6028C965.684 7.11177 980.574 10.6747 994.699 17.6731C1010.99 25.9439 1022.95 38.4135 1031.09 54.7005C1039.49 71.6237 1043.31 89.8194 1045.22 108.397C1047.13 126.847 1046.87 145.297 1047 163.747C1047 173.672 1047.26 183.598 1047.26 193.396V234.876C1047.26 258.289 1047.26 281.83 1047.38 305.242C1047.51 325.474 1047.77 345.705 1045.86 365.937C1044.33 382.733 1041.02 399.02 1033.89 414.416C1023.21 437.193 1006.15 452.462 981.592 459.206C971.157 462.006 960.467 463.278 949.65 463.406C922.289 463.915 894.929 464.169 867.569 464.296C862.224 464.296 856.879 463.787 850.516 463.532L850.209 462.696C850.075 460.163 849.88 457.727 849.88 455.389C849.626 436.812 849.499 418.107 849.371 399.53C849.371 386.805 849.371 374.208 849.243 361.484C849.243 347.614 848.989 333.872 848.989 320.002C848.989 308.932 848.989 297.862 848.862 286.792C848.862 269.487 848.607 252.182 848.48 234.749C848.352 216.299 847.971 197.849 847.844 179.272C847.717 166.293 847.716 153.314 847.589 140.462C847.589 125.957 847.589 111.323 847.462 96.8176V53.1731C847.462 40.0673 847.335 26.9615 847.207 13.8557C847.207 11.8199 847.335 9.78376 847.462 7.49342C849.116 7.23896 850.643 6.72985 852.17 6.72975C870.368 6.47527 888.566 6.22097 906.764 6.22096ZM2291.58 1.13112C2308.38 1.13112 2324.67 3.80334 2340.19 10.5471C2354.06 16.5276 2364.63 26.1981 2372.64 38.7952C2381.55 52.6647 2386.77 68.0611 2389.7 84.221L2389.44 84.7298C2394.02 110.56 2394.66 136.518 2392.62 162.603C2391.1 181.18 2387.15 199.376 2380.53 216.936C2374.68 232.332 2366.15 246.074 2353.81 257.272C2342.1 267.96 2328.23 273.813 2312.45 275.085C2303.16 275.721 2293.74 275.595 2284.46 275.722C2279.75 275.849 2275.17 275.977 2270.33 275.977C2269.31 280.43 2269.57 284.63 2269.57 288.828C2269.57 297.608 2269.69 306.515 2269.69 315.422C2269.95 336.926 2269.95 358.557 2269.95 380.061V455.135C2269.95 456.535 2269.82 457.934 2269.82 459.206C2261.29 462.26 2208.1 462.896 2199.7 460.097C2199.45 459.461 2199.07 458.57 2199.07 457.807C2198.81 443.301 2198.68 428.923 2198.56 414.544C2198.43 401.438 2198.05 388.332 2198.05 375.226C2197.92 362.247 2197.92 349.268 2197.92 336.289C2197.92 322.42 2197.67 308.677 2197.67 294.808V254.6C2197.67 246.456 2197.41 238.313 2197.41 230.169C2197.28 216.681 2197.03 203.066 2197.03 189.578C2196.9 173.8 2196.77 158.149 2196.77 142.371C2196.65 127.866 2196.52 113.487 2196.39 99.1087C2196.27 76.205 2196.01 53.4284 2195.76 30.5247V6.47585C2195.76 5.4579 2196.01 4.43929 2196.14 2.91237C2197.79 2.65788 2199.45 2.02174 2201.1 2.02174C2211.54 1.76726 2222.1 1.386 2232.53 1.386C2252.26 1.13152 2271.86 1.13112 2291.58 1.13112ZM368.209 0.621354C383.226 0.621354 398.243 0.748994 413.259 0.876237C435.147 1.13072 456.908 1.2575 478.796 1.51198C482.868 1.51198 486.941 1.51239 491.013 1.76686C492.54 1.76686 494.067 2.14812 495.594 2.4026C497.121 8.38294 497.376 62.0781 495.976 68.0598C471.924 69.3322 447.618 67.4243 423.312 69.4602C423.057 74.168 422.803 78.3669 422.676 82.5657C422.422 101.398 422.422 120.103 422.167 138.935C421.913 163.747 421.531 188.432 421.404 213.244C421.149 240.856 420.894 268.596 420.767 296.207V353.466C420.767 369.753 421.022 386.04 421.022 402.327C421.022 417.342 420.767 432.357 420.64 447.371V459.587C412.241 460.351 404.35 459.842 396.333 459.969C388.189 460.096 380.044 459.842 371.9 459.587C363.883 459.46 355.993 459.842 347.721 459.078L347.408 457.515C347.25 454.786 346.957 452.239 346.957 449.789C346.957 434.393 346.83 418.997 346.957 403.473C346.957 382.478 347.339 361.61 347.594 340.615C347.594 327.763 347.594 315.039 347.721 302.188C347.721 279.03 347.722 255.871 347.849 232.713C347.849 217.19 348.102 201.538 348.23 186.015C348.23 170.873 347.976 155.731 347.976 140.589C347.976 129.646 348.23 118.703 348.23 107.887V74.2952C348.23 72.7683 347.976 71.1142 347.849 69.0784C345.813 68.8239 344.031 68.4417 342.249 68.4417C322.143 68.1872 302.036 68.0604 281.929 67.8059C279.511 67.8059 276.966 67.5513 274.039 67.4241C273.403 56.4812 273.784 45.6655 273.784 34.8499C273.784 24.1615 274.039 13.4728 274.166 2.4026C276.839 2.02089 278.747 1.63923 280.783 1.51198C294.527 1.25749 308.144 0.87555 321.888 0.748307C337.286 0.621066 352.811 0.621354 368.209 0.621354ZM80.4807 4.31178C99.8237 -1.92303 119.294 -1.1594 138.51 5.07546C148.181 8.25647 157.089 12.7101 165.234 18.8176C176.178 26.9612 183.941 37.5228 189.922 49.4837C194.758 59.0268 197.812 69.2061 199.848 79.6399C200.993 85.2386 202.139 90.7102 203.411 96.3089C204.429 100.762 204.175 105.216 203.538 110.306C183.05 113.869 162.435 116.922 141.565 119.976C141.183 118.704 140.673 117.813 140.546 116.795C139.146 106.234 136.729 95.9268 133.547 85.7473C130.111 74.6774 122.984 67.4249 111.15 65.7708C98.424 63.9894 87.8616 67.9336 80.4807 78.8762C76.5358 84.7293 74.7543 91.2191 73.8635 98.0901C72.3364 108.779 73.6082 119.213 77.0442 129.52C82.6435 146.188 91.679 160.949 103.514 173.8C116.494 187.797 129.856 201.411 143.091 215.154C153.526 226.096 164.471 236.659 173.888 248.619C191.704 271.268 203.666 296.462 207.611 325.219C209.519 338.58 209.138 351.941 207.992 365.301C206.847 378.534 204.048 391.513 198.322 403.601C184.45 432.485 162.307 450.935 130.62 457.552C116.24 460.479 101.732 460.861 87.2248 458.316C72.5905 455.771 59.3558 449.918 47.3938 441.138C31.8684 429.813 20.5425 415.18 12.6526 397.62C6.54423 384.133 3.61734 369.754 1.19945 355.248C0.308683 350.031 -0.328089 344.942 0.180899 339.598C0.180899 338.834 0.435477 338.198 0.562734 337.562L0.832266 337.346C7.23785 335.381 60.6885 326.881 64.4465 327.382C64.9556 330.181 65.7184 333.109 65.9729 336.162C66.7365 347.487 69.4095 358.302 73.4817 368.864C76.5358 376.88 81.1166 383.879 89.261 387.95C101.35 394.185 120.057 393.294 131.638 382.352C140.8 373.827 143.6 363.01 144.237 351.304C144.618 343.542 143.346 336.035 141.055 328.528C137.746 317.839 132.656 308.042 125.276 299.644C119.295 292.645 113.059 285.901 106.95 279.03C98.1697 269.105 89.5153 259.18 80.7346 249.128C69.4088 236.149 58.083 223.298 47.1389 210.065C40.1398 201.667 33.3957 193.014 27.2873 184.107C14.9434 166.293 8.19786 146.315 6.41625 124.684C4.88922 107.379 5.9076 90.3287 11.634 73.7874C23.2145 39.4317 45.7394 15.6364 80.4807 4.31178ZM568.062 4.97389C588.358 3.98477 607.971 4.8132 627.943 4.56667C628.197 6.4751 628.706 8.12917 628.706 9.91042C628.834 20.217 628.961 30.6507 629.088 40.9573C629.088 53.0454 629.215 65.1339 629.342 77.2219V201.284C629.342 221.389 629.47 241.493 629.47 261.597C629.47 271.267 629.47 280.811 629.215 290.482C629.088 307.659 628.706 324.837 628.706 342.015C628.706 348.632 629.342 355.376 630.233 361.992C630.996 367.973 633.541 373.444 636.341 378.788C642.958 391.004 658.484 396.984 672.61 393.039C682.281 390.367 688.771 384.132 692.589 375.098C695.643 367.718 697.298 360.084 697.425 352.195C697.68 338.452 697.934 324.837 698.062 311.095C698.189 292.009 698.189 272.922 698.189 253.835C698.189 236.657 698.062 219.48 698.062 202.302C698.062 189.832 698.189 177.235 698.189 164.765V55.5911C698.189 41.4672 698.188 27.3429 698.443 13.219C698.443 10.8015 698.697 8.25647 698.824 5.45729C704.169 4.5666 709.26 5.20268 714.223 5.07546C719.186 4.94821 724.149 5.07546 729.113 5.07546H759.272C760.671 8.25638 760.417 11.3099 760.417 14.3635V195.176C760.417 204.337 760.163 213.499 760.163 222.66C760.163 236.148 760.29 249.764 760.417 263.251V286.409C760.417 296.462 760.29 306.514 760.035 316.567C759.654 331.708 759.654 346.851 758.509 361.992C756.982 380.952 752.273 399.275 742.856 416.071C735.857 428.667 726.185 438.847 713.841 446.227C703.788 452.334 692.589 455.898 681.009 457.679C668.792 459.588 656.702 459.588 644.486 457.679C630.233 455.389 616.871 450.553 605.036 442.028C592.947 433.248 584.42 421.669 578.567 407.927C572.204 393.167 568.259 377.643 566.732 361.611C566.095 354.612 565.713 347.614 565.713 340.742C565.586 332.217 565.841 323.565 565.841 314.912C565.841 298.498 565.841 281.956 565.968 265.541C565.968 249.382 566.223 233.222 566.223 217.062C566.223 200.775 566.222 184.487 566.095 168.2C566.095 153.186 565.841 138.172 565.841 123.284V103.689C565.841 86.8928 565.968 70.2239 566.095 53.428C566.095 41.0855 566.223 28.6152 566.223 16.2727C566.223 12.8372 566.095 9.40114 565.968 5.32936L568.062 4.97389ZM1520.27 67.2971C1505.64 67.4245 1495.46 75.9501 1492.66 90.3284C1490.88 99.6171 1490.37 109.16 1490.62 118.576C1490.88 131.682 1491.39 144.789 1491.77 157.895C1492.15 167.82 1492.4 177.617 1492.79 187.542C1493.04 194.922 1493.42 202.43 1493.55 209.81C1493.93 223.17 1494.06 236.658 1494.44 250.019C1495.08 269.996 1495.84 289.846 1496.6 309.823C1497.11 324.328 1497.37 338.961 1498.13 353.467C1498.51 361.611 1499.66 369.627 1500.93 377.771C1501.95 384.26 1505 389.859 1509.58 394.567C1524.73 409.709 1553.11 402.456 1558.58 380.824C1560.61 372.554 1560.87 364.156 1561.12 356.776L1560.99 347.62C1560.97 338.644 1560.9 330.15 1560.61 321.657C1559.34 292.136 1559.85 262.615 1557.43 233.095C1556.29 219.607 1556.54 205.993 1556.16 192.505C1555.78 176.982 1555.65 161.33 1555.14 145.807C1554.76 132.574 1554.12 119.34 1553.23 106.107C1552.72 98.7266 1551.32 91.3463 1548.65 84.3479C1545.85 76.9679 1540.51 72.0054 1533.13 69.3333C1528.93 67.8064 1524.6 67.2971 1520.27 67.2971ZM962.885 86.2571C951.177 76.5867 937.561 72.8962 922.544 74.4231C919.235 74.6776 915.926 75.0597 912.872 76.8411C912.872 77.7317 912.491 78.6224 912.618 79.513C912.618 85.2389 912.618 90.8378 912.745 96.5637C912.873 114.378 913.127 132.064 913.254 149.878C913.254 162.602 913.254 175.2 913.381 187.924C913.508 205.992 913.763 224.061 914.018 242.129V267.96C914.018 280.43 914.272 293.027 914.4 305.496V345.197C914.4 347.996 915.035 350.923 915.417 353.722V355.376C915.163 357.285 914.654 359.066 914.654 360.975C914.654 370.9 914.654 380.825 914.781 390.622C914.781 392.022 915.036 393.422 915.163 394.567L916.03 394.553C916.435 394.75 916.627 394.822 916.818 394.822C929.289 394.822 941.887 394.821 954.359 394.44C962.376 394.185 967.975 389.859 971.665 382.988C974.847 377.007 977.138 370.772 977.647 364.029C978.156 357.412 978.792 350.668 978.919 344.051C979.174 331.963 978.919 319.875 978.919 307.787C978.919 296.59 978.537 285.392 978.537 274.195C978.537 259.434 978.792 244.801 978.664 230.041C978.537 208.156 978.155 186.397 977.774 164.639C977.519 150.261 977.138 135.882 976.756 121.376C976.629 114.76 975.483 108.397 973.32 102.162C971.156 95.9276 967.975 90.4561 962.885 86.2571ZM2025.1 158.657C2017.85 206.246 2011.87 254.217 2005.63 302.697C2018.1 302.697 2029.94 302.696 2042.16 302.315L2042.17 301.888C2042.21 300.374 2042.39 299.372 2042.28 298.37C2036.81 251.927 2031.34 205.483 2025.74 158.912L2025.49 158.657C2025.49 158.657 2025.23 158.657 2025.1 158.657ZM2273.51 69.7151C2271.98 69.7151 2270.46 70.2247 2268.29 70.7337C2268.55 116.159 2268.17 161.458 2268.93 207.011C2272.11 207.138 2274.91 207.393 2277.58 207.393C2285.09 207.266 2292.47 207.265 2299.85 206.501C2307.36 205.611 2313.22 201.285 2316.65 194.541C2320.6 186.779 2323.14 178.508 2323.65 169.856L2323.52 169.983C2324.67 151.151 2325.94 132.192 2324.67 113.233C2324.03 104.071 2322 95.2914 2318.31 87.0208C2314.11 77.7321 2306.98 71.8787 2296.67 70.8606C2288.91 69.9699 2281.27 69.9696 2273.51 69.7151Z" fill="white"/>
</svg>
