<svg width="529" height="468" viewBox="0 0 529 468" fill="none" xmlns="http://www.w3.org/2000/svg">
<path d="M370.917 12.3264C374.735 11.3085 448.034 10.2913 454.526 11.1819C454.907 12.4543 455.417 13.9815 455.799 15.3811C458.471 30.3957 461.017 45.5375 463.562 60.552C466.87 80.5292 470.179 100.38 473.614 120.357C478.068 146.95 482.522 173.417 486.849 200.01C490.794 224.568 494.485 249.254 498.43 273.812C500.466 286.79 502.756 299.642 504.792 312.62C508.737 337.433 512.81 362.372 516.628 387.185C520.446 411.87 524.263 436.682 528.08 461.367C528.335 462.894 528.335 464.549 528.462 465.949C524.641 467.221 462.67 467.985 456.18 466.712L455.547 463.936C450.388 432.611 447.356 401.051 442.055 369.371C424.493 368.226 407.186 369.116 389.497 369.243C389.116 370.643 388.606 371.916 388.479 373.061C386.824 385.658 385.425 398.255 383.771 410.725C382.244 422.686 380.589 434.647 379.062 446.608C378.298 451.952 377.662 457.296 376.899 462.64C376.771 464.04 376.39 465.439 376.135 467.348C353.356 467.984 330.832 467.729 308.18 467.857C307.416 464.421 308.052 461.495 308.434 458.696C309.579 449.789 310.852 440.881 312.124 431.847C313.779 420.777 315.433 409.707 316.96 398.637C318.106 390.748 318.997 382.731 320.142 374.842C321.669 363.518 323.323 352.066 324.978 340.741C325.996 333.234 327.013 325.726 328.031 318.219C329.177 309.694 330.323 301.169 331.468 292.644C332.741 283.61 333.886 274.448 335.158 265.413C337.067 251.544 339.103 237.801 341.139 223.932C342.411 215.152 343.43 206.372 344.575 197.465C346.612 183.214 348.648 168.963 350.684 154.712C352.211 143.26 353.738 131.935 355.265 120.484C356.792 109.032 358.446 97.7067 360.101 86.3821C361.246 77.857 362.264 69.332 363.536 60.8069C365.063 49.7368 366.718 38.6661 368.372 27.596C368.881 23.906 369.518 20.0887 370.027 16.3987C370.281 14.999 370.663 13.5989 370.917 12.3264ZM80.4807 4.31178C99.8237 -1.92301 119.294 -1.15942 138.51 5.07546C148.181 8.25648 157.089 12.7101 165.234 18.8176C176.178 26.9612 183.941 37.5228 189.922 49.4837C194.758 59.0268 197.812 69.2061 199.848 79.6399C200.993 85.2386 202.139 90.7102 203.411 96.3089C204.429 100.762 204.175 105.216 203.538 110.306C183.05 113.869 162.434 116.922 141.564 119.976C141.182 118.704 140.673 117.813 140.546 116.795C139.146 106.234 136.729 95.9268 133.547 85.7473C130.111 74.6774 122.984 67.4249 111.15 65.7708C98.424 63.9894 87.8616 67.9336 80.4807 78.8762C76.5358 84.7293 74.7543 91.2191 73.8635 98.0901C72.3364 108.779 73.6082 119.213 77.0442 129.52C82.6435 146.189 91.679 160.949 103.514 173.8C116.494 187.797 129.856 201.411 143.091 215.154C153.526 226.096 164.471 236.658 173.888 248.618C191.704 271.268 203.666 296.462 207.611 325.219C209.519 338.58 209.138 351.941 207.992 365.301C206.847 378.534 204.047 391.513 198.321 403.601C184.45 432.485 162.307 450.935 130.62 457.552C116.24 460.479 101.732 460.861 87.2248 458.316C72.5905 455.771 59.3558 449.918 47.3938 441.138C31.8684 429.813 20.5425 415.18 12.6526 397.62C6.54421 384.133 3.61735 369.754 1.19945 355.248C0.308679 350.031 -0.328087 344.942 0.180898 339.598C0.180898 338.834 0.435476 338.198 0.562734 337.562L0.831288 337.346C7.23288 335.381 60.6832 326.882 64.4455 327.382C64.9546 330.181 65.7184 333.109 65.9729 336.162C66.7365 347.487 69.4095 358.302 73.4817 368.864C76.5359 376.88 81.1166 383.879 89.261 387.95C101.35 394.185 120.057 393.294 131.638 382.352C140.8 373.827 143.6 363.01 144.237 351.304C144.618 343.542 143.346 336.035 141.055 328.528C137.746 317.839 132.656 308.042 125.276 299.644C119.295 292.645 113.059 285.901 106.95 279.03C98.1697 269.105 89.5154 259.18 80.7346 249.128C69.4088 236.149 58.083 223.298 47.1389 210.065C40.1397 201.667 33.3947 193.014 27.2864 184.107C14.9425 166.293 8.19785 146.315 6.41625 124.684C4.88921 107.379 5.9076 90.3287 11.634 73.7874C23.2145 39.4317 45.7394 15.6364 80.4807 4.31178ZM416.731 158.657C409.477 206.245 403.496 254.216 397.26 302.696C409.731 302.696 421.566 302.695 433.782 302.314L433.793 301.887C433.84 300.373 434.022 299.371 433.91 298.369C428.438 251.926 422.966 205.482 417.366 158.911L417.113 158.657C417.113 158.657 416.858 158.657 416.731 158.657Z" fill="white"/>
</svg>
